<?xml version="1.0" encoding="UTF-8" standalone="no"?>
<svg
   width="900px"
   height="900px"
   viewBox="0 0 900 900"
   version="1.1"
   xml:space="preserve"
   id="SVGRoot"
   inkscape:version="1.3.2 (091e20e, 2023-11-25, custom)"
   sodipodi:docname="BG_gener_IconR1.svg"
   xmlns:inkscape="http://www.inkscape.org/namespaces/inkscape"
   xmlns:sodipodi="http://sodipodi.sourceforge.net/DTD/sodipodi-0.dtd"
   xmlns="http://www.w3.org/2000/svg"
   xmlns:svg="http://www.w3.org/2000/svg"><defs
   id="defs2" />
<sodipodi:namedview
   pagecolor="#a9a9a9"
   bordercolor="#292929"
   borderopacity="1"
   inkscape:showpageshadow="2"
   inkscape:pageopacity="0.0"
   inkscape:pagecheckerboard="0"
   inkscape:deskcolor="#232323"
   id="namedview1"
   inkscape:zoom="0.45611111"
   inkscape:cx="333.25213"
   inkscape:cy="571.13276"
   inkscape:window-width="1920"
   inkscape:window-height="1017"
   inkscape:window-x="-8"
   inkscape:window-y="-8"
   inkscape:window-maximized="1"
   inkscape:current-layer="SVGRoot" />
<style
   type="text/css"
   id="style1">
g.prefab path {
  vector-effect:non-scaling-stroke;
  -inkscape-stroke:hairline;
  fill: none;
  fill-opacity: 1;
  stroke-opacity: 1;
  stroke: #00349c;
}
</style>
<g
   inkscape:label="Droplet"
   style="display:none;fill:#ffffff;stroke:#000000;stroke-width:2"
   class="prefab"
   id="g2"
   sodipodi:insensitive="true">
  <path
   d="M 853.57143,50.000001 H 53.571427 V 138.88889 H 853.57143 Z m 0,177.777779 H 53.571427 v 88.88889 H 853.57143 Z m 0,177.77778 H 53.571427 v 88.88889 H 853.57143 Z m 0,177.77777 H 53.571427 v 88.88889 H 853.57143 Z m 0,177.77778 H 53.571427 V 850 H 853.57143 Z M 53.571427,50 V 850 H 142.46032 V 50 Z M 231.34921,50 V 850 H 320.2381 V 50 Z m 177.77778,0 v 800 h 88.88888 V 50 Z m 177.77777,0 v 800 h 88.88889 V 50 Z m 177.77778,0 v 800 h 88.88889 V 50 Z"
   id="path1"
   style="display:inline" />
  <path
   d="M 450,50 A 400,400 0 0 0 50,450 400,400 0 0 0 450,850 400,400 0 0 0 850,450 400,400 0 0 0 450,50 Z m 0,88.88867 A 311.11111,311.11111 0 0 1 761.11133,450 311.11111,311.11111 0 0 1 450,761.11133 311.11111,311.11111 0 0 1 138.88867,450 311.11111,311.11111 0 0 1 450,138.88867 Z m 0,88.88867 A 222.22223,222.22223 0 0 0 227.77734,450 222.22223,222.22223 0 0 0 450,672.22266 222.22223,222.22223 0 0 0 672.22266,450 222.22223,222.22223 0 0 0 450,227.77734 Z m 0,88.88868 A 133.33333,133.33333 0 0 1 583.33398,450 133.33333,133.33333 0 0 1 450,583.33398 133.33333,133.33333 0 0 1 316.66602,450 133.33333,133.33333 0 0 1 450,316.66602 Z m 0,88.88867 A 44.444447,44.444447 0 0 0 405.55469,450 44.444447,44.444447 0 0 0 450,494.44531 44.444447,44.444447 0 0 0 494.44531,450 44.444447,44.444447 0 0 0 450,405.55469 Z"
   id="path2"
   style="display:inline" />
</g>
<circle
   style="display:none;fill:#dadada;fill-opacity:1;stroke:none;stroke-width:25.4181"
   id="path13"
   cx="450"
   cy="450"
   r="450"
   sodipodi:insensitive="true" /><circle
   style="display:inline;fill:#800cde;fill-opacity:1;stroke:#000000;stroke-width:20;stroke-dasharray:none;stroke-opacity:1"
   id="circle14"
   cx="450.00003"
   cy="450.00009"
   r="437.64011" /><ellipse
   style="fill:#4e0887;fill-opacity:1;stroke:#c5b9f4;stroke-width:20;stroke-dasharray:none;stroke-opacity:1"
   id="ellipse14"
   cx="367.53262"
   cy="351.37289"
   rx="275.16382"
   ry="275.16385" /><ellipse
   style="fill:#86b729;fill-opacity:1;stroke:#8fd743;stroke-width:27.33;stroke-opacity:1"
   id="path10"
   cx="572"
   cy="619"
   rx="186.33499"
   ry="186.33501" /><rect
   style="fill:#9be5a3;fill-opacity:1;stroke:#d95d5d;stroke-width:30;stroke-dasharray:none;stroke-opacity:1"
   id="rect8"
   width="321.29419"
   height="317.99042"
   x="153.67816"
   y="407.0412" /><path
   sodipodi:type="star"
   style="display:none;fill:#107756;fill-opacity:1;stroke:none;stroke-width:25"
   id="path12"
   inkscape:flatsided="true"
   sodipodi:sides="3"
   sodipodi:cx="233.49574"
   sodipodi:cy="671.98535"
   sodipodi:r1="187.5088"
   sodipodi:r2="93.754402"
   sodipodi:arg1="0.26179939"
   sodipodi:arg2="1.3089969"
   inkscape:rounded="0"
   inkscape:randomized="0"
   d="M 414.61534,720.5162 100.907,804.5741 184.96489,490.86575 Z"
   inkscape:transform-center-x="-17.261691"
   inkscape:transform-center-y="-17.261684"
   transform="matrix(0.71136972,0,0,0.71136972,124.19379,127.68792)"
   sodipodi:insensitive="true" /><path
   sodipodi:type="star"
   style="fill:#d8e59b;fill-opacity:1;stroke:#5d5d5d;stroke-width:32.247;stroke-dasharray:none;stroke-opacity:1"
   id="path8"
   inkscape:flatsided="true"
   sodipodi:sides="4"
   sodipodi:cx="675.27405"
   sodipodi:cy="228.01462"
   sodipodi:r1="166.64049"
   sodipodi:r2="117.83262"
   sodipodi:arg1="-3.1284355"
   sodipodi:arg2="-2.3430374"
   inkscape:rounded="0"
   inkscape:randomized="0"
   d="M 508.64798,225.82217 677.4665,61.388554 841.90011,230.20707 673.0816,394.64068 Z"
   transform="matrix(1.2404248,0,0,1.2404248,-236.07443,61.782779)" /><path
   sodipodi:type="star"
   style="display:inline;fill:#90f0d1;fill-opacity:1;stroke:#9e9e9e;stroke-width:25.0003;stroke-dasharray:none;stroke-opacity:1"
   id="path11"
   inkscape:flatsided="true"
   sodipodi:sides="3"
   sodipodi:cx="230.20706"
   sodipodi:cy="229.11084"
   sodipodi:r1="151.27893"
   sodipodi:r2="75.639465"
   sodipodi:arg1="1.5707963"
   sodipodi:arg2="2.6179939"
   inkscape:rounded="0"
   inkscape:randomized="0"
   d="M 230.20707,380.38977 99.195663,153.47138 l 262.022797,-1e-5 z"
   inkscape:transform-center-y="31.80144"
   transform="matrix(0.84086899,0,0,0.84086899,121.82394,355.55585)" /><ellipse
   style="display:none;fill:#c0c0c0;fill-opacity:1;stroke:#000000;stroke-width:21.0217;stroke-opacity:1"
   id="path9"
   cx="448.99152"
   cy="445.63934"
   rx="111.53548"
   ry="111.99636" /><path
   sodipodi:type="star"
   style="fill:#bd95f6;fill-opacity:1;stroke:#939393;stroke-width:20;stroke-dasharray:none;stroke-opacity:1"
   id="path14"
   inkscape:flatsided="true"
   sodipodi:sides="3"
   sodipodi:cx="196.88747"
   sodipodi:cy="458.88733"
   sodipodi:r1="153.06367"
   sodipodi:r2="76.53183"
   sodipodi:arg1="0"
   sodipodi:arg2="1.0471976"
   inkscape:rounded="0"
   inkscape:randomized="0"
   d="m 349.95114,458.88733 -229.59551,132.55703 0,-265.11406 z"
   inkscape:transform-center-x="-30.724668"
   transform="matrix(0.80292519,0,0,-0.80292519,123.61809,631.23175)"
   inkscape:transform-center-y="-4.8149291e-06" /></svg>
