<?xml version="1.0" encoding="UTF-8" standalone="no"?>
<!-- Created with Inkscape (http://www.inkscape.org/) -->

<svg
   width="512"
   height="512"
   viewBox="0 0 512 512"
   version="1.1"
   id="svg1"
   inkscape:version="1.3.2 (091e20e, 2023-11-25, custom)"
   sodipodi:docname="DestroyImageButton.svg"
   inkscape:export-filename="DestroyImageButton.png"
   inkscape:export-xdpi="96"
   inkscape:export-ydpi="96"
   xmlns:inkscape="http://www.inkscape.org/namespaces/inkscape"
   xmlns:sodipodi="http://sodipodi.sourceforge.net/DTD/sodipodi-0.dtd"
   xmlns="http://www.w3.org/2000/svg"
   xmlns:svg="http://www.w3.org/2000/svg">
  <sodipodi:namedview
     id="namedview1"
     pagecolor="#ffffff"
     bordercolor="#000000"
     borderopacity="0.25"
     inkscape:showpageshadow="2"
     inkscape:pageopacity="0.0"
     inkscape:pagecheckerboard="0"
     inkscape:deskcolor="#d1d1d1"
     inkscape:document-units="px"
     inkscape:zoom="1.1338568"
     inkscape:cx="261.93785"
     inkscape:cy="176.8301"
     inkscape:window-width="1920"
     inkscape:window-height="1017"
     inkscape:window-x="-8"
     inkscape:window-y="-8"
     inkscape:window-maximized="1"
     inkscape:current-layer="svg1" />
  <defs
     id="defs1" />
  <g
     inkscape:label="Слой 1"
     inkscape:groupmode="layer"
     id="layer1"
     style="display:none">
    <circle
       style="display:inline;fill:none;stroke:#000000;stroke-width:1;stroke-dasharray:none;stroke-opacity:1"
       id="path1"
       cx="256"
       cy="256"
       r="256"
       sodipodi:insensitive="true" />
    <rect
       style="fill:#173746;fill-opacity:1;stroke:#ffffff;stroke-width:4.57746;stroke-dasharray:none;stroke-opacity:1"
       id="rect1"
       width="320.42255"
       height="320.42255"
       x="93.333183"
       y="98.321846" />
    <path
       style="display:inline;fill:none;stroke:#ffffff;stroke-width:20;stroke-dasharray:none"
       d="M 425.31548,342.99635 386.0268,180.229 354.84532,339.8782 328.02924,151.54202 291.23508,356.09258 269.40804,209.53959 245.71011,319.29842 217.64678,195.1961 177.73447,349.23265 157.77832,164.01462 125.34957,329.2765 74.835568,146.55298"
       id="path2"
       sodipodi:nodetypes="cccccccccccc" />
  </g>
  <path
     d="M 413.75586,295.10352 386.02734,180.22852 354.8457,339.87891 328.0293,151.54297 291.23437,356.0918 269.4082,209.53906 245.71094,319.29883 217.64648,195.19531 177.73437,349.23242 157.77734,164.01367 125.34961,329.27734 93.333984,213.4668 V 418.74414 H 413.75586 Z"
     style="fill:none;stroke:#830000;stroke-width:25;stroke-dasharray:none;fill-opacity:1;stroke-opacity:1"
     id="path6" />
  <path
     d="M 93.333984,98.322266 V 213.4668 l 32.015626,115.81054 32.42773,-165.26367 19.95703,185.21875 39.91211,-154.03711 28.06446,124.10352 23.69726,-109.75977 21.82617,146.55274 36.79493,-204.54883 26.8164,188.33594 31.18164,-159.65039 27.72852,114.875 V 98.322266 Z"
     style="fill:none;stroke:#830000;stroke-width:25;stroke-dasharray:none;fill-opacity:1;stroke-opacity:1"
     id="path5" />
</svg>
